<svg width="20" height="30" viewBox="0 0 20 30" fill="none" xmlns="http://www.w3.org/2000/svg">
<g filter="url(#filter0_d)">
<path d="M5 13L4.275 13.6887C3.90833 13.3028 3.90833 12.6972 4.275 12.3113L5 13ZM13.775 2.31125C14.1554 1.91084 14.7883 1.89461 15.1887 2.275C15.5892 2.65539 15.6054 3.28834 15.225 3.68875L13.775 2.31125ZM15.225 22.3113C15.6054 22.7117 15.5892 23.3446 15.1887 23.725C14.7883 24.1054 14.1554 24.0892 13.775 23.6887L15.225 22.3113ZM4.275 12.3113L13.775 2.31125L15.225 3.68875L5.725 13.6887L4.275 12.3113ZM5.725 12.3113L15.225 22.3113L13.775 23.6887L4.275 13.6887L5.725 12.3113Z" fill="#6B6B6B"/>
</g>
<defs>
<filter id="filter0_d" x="0" y="0" width="19.5" height="30" filterUnits="userSpaceOnUse" color-interpolation-filters="sRGB">
<feFlood flood-opacity="0" result="BackgroundImageFix"/>
<feColorMatrix in="SourceAlpha" type="matrix" values="0 0 0 0 0 0 0 0 0 0 0 0 0 0 0 0 0 0 127 0"/>
<feOffset dy="2"/>
<feGaussianBlur stdDeviation="2"/>
<feColorMatrix type="matrix" values="0 0 0 0 0 0 0 0 0 0 0 0 0 0 0 0 0 0 0.15 0"/>
<feBlend mode="normal" in2="BackgroundImageFix" result="effect1_dropShadow"/>
<feBlend mode="normal" in="SourceGraphic" in2="effect1_dropShadow" result="shape"/>
</filter>
</defs>
</svg>
