<svg width="20" height="30" viewBox="0 0 20 30" fill="none" xmlns="http://www.w3.org/2000/svg">
<g filter="url(#filter0_d)">
<path d="M14.5 13L15.225 13.6887C15.5917 13.3028 15.5917 12.6972 15.225 12.3113L14.5 13ZM5.725 2.31125C5.34461 1.91084 4.71166 1.89461 4.31125 2.275C3.91084 2.65539 3.89461 3.28834 4.275 3.68875L5.725 2.31125ZM4.275 22.3113C3.89461 22.7117 3.91084 23.3446 4.31125 23.725C4.71166 24.1054 5.34461 24.0892 5.725 23.6887L4.275 22.3113ZM15.225 12.3113L5.725 2.31125L4.275 3.68875L13.775 13.6887L15.225 12.3113ZM13.775 12.3113L4.275 22.3113L5.725 23.6887L15.225 13.6887L13.775 12.3113Z" fill="#6B6B6B"/>
</g>
<defs>
<filter id="filter0_d" x="0" y="0" width="19.5" height="30" filterUnits="userSpaceOnUse" color-interpolation-filters="sRGB">
<feFlood flood-opacity="0" result="BackgroundImageFix"/>
<feColorMatrix in="SourceAlpha" type="matrix" values="0 0 0 0 0 0 0 0 0 0 0 0 0 0 0 0 0 0 127 0"/>
<feOffset dy="2"/>
<feGaussianBlur stdDeviation="2"/>
<feColorMatrix type="matrix" values="0 0 0 0 0 0 0 0 0 0 0 0 0 0 0 0 0 0 0.15 0"/>
<feBlend mode="normal" in2="BackgroundImageFix" result="effect1_dropShadow"/>
<feBlend mode="normal" in="SourceGraphic" in2="effect1_dropShadow" result="shape"/>
</filter>
</defs>
</svg>
